<?xml version="1.0" encoding="UTF-8"?>
<!-- Created with Inkscape (http://www.inkscape.org/) -->
<svg width="32" height="32" version="1.1" viewBox="0 0 8.4667 8.4667" xmlns="http://www.w3.org/2000/svg" xmlns:cc="http://creativecommons.org/ns#" xmlns:dc="http://purl.org/dc/elements/1.1/" xmlns:rdf="http://www.w3.org/1999/02/22-rdf-syntax-ns#">
 <title>Palette</title>
 <metadata>
  <rdf:RDF>
   <cc:Work rdf:about="">
    <dc:format>image/svg+xml</dc:format>
    <dc:type rdf:resource="http://purl.org/dc/dcmitype/StillImage"/>
    <dc:title>Palette</dc:title>
    <dc:creator>
     <cc:Agent>
      <dc:title>Simon Raichl</dc:title>
     </cc:Agent>
    </dc:creator>
    <dc:rights>
     <cc:Agent>
      <dc:title>MIT</dc:title>
     </cc:Agent>
    </dc:rights>
    <dc:publisher>
     <cc:Agent>
      <dc:title>Simon Raichl</dc:title>
     </cc:Agent>
    </dc:publisher>
    <dc:language>English</dc:language>
    <dc:contributor>
     <cc:Agent>
      <dc:title>Simon Raichl</dc:title>
     </cc:Agent>
    </dc:contributor>
   </cc:Work>
  </rdf:RDF>
 </metadata>
 <g transform="translate(0 -288.53)">
  <path d="m4.573 289.2c-0.26573-3e-3 -0.52832 0.0211-0.79117 0.0698-0.70092 0.12991-1.4018 0.42916-1.8981 0.88987-0.49625 0.46072-0.78745 1.0826-0.89038 1.7286-0.10293 0.64598-0.015364 1.3305 0.23668 2.0748 0.25204 0.74433 0.6692 1.5552 1.4175 2.0278 0.74829 0.47254 1.8271 0.60639 2.6696 0.38189 0.84253-0.22451 1.4489-0.80735 1.3818-1.4175-0.067058-0.61014-0.8072-1.248-0.64957-1.9332 0.15763-0.6852 1.2129-1.4177 1.3348-2.0593 0.12193-0.64165-0.68903-1.1924-1.4449-1.4878-0.4724-0.18457-0.92344-0.26915-1.3663-0.27492zm-0.098185 0.25528a0.68508 0.68508 0 0 1 0.64596 0.48162l0.00982 0.0346a0.68508 0.68508 0 0 1-0.48679 0.83044 0.68508 0.68508 0 0 1-0.83664-0.47594 0.68508 0.68508 0 0 1 0.46457-0.84284 0.68508 0.68508 0 0 1 0.20309-0.0279zm-1.7958 0.82682a0.68508 0.68508 0 0 1 0.64647 0.48163l0.00982 0.0346a0.68508 0.68508 0 0 1-0.48679 0.83044 0.68508 0.68508 0 0 1-0.83664-0.47594 0.68508 0.68508 0 0 1 0.46457-0.84284 0.68508 0.68508 0 0 1 0.20257-0.0279zm-0.35398 1.9136a0.68508 0.68508 0 0 1 0.64596 0.48163l0.00982 0.0346a0.68508 0.68508 0 0 1-0.48679 0.83044 0.68508 0.68508 0 0 1-0.83664-0.47594 0.68508 0.68508 0 0 1 0.46457-0.84284 0.68508 0.68508 0 0 1 0.20309-0.0279zm0.92139 1.8185a0.68508 0.68508 0 0 1 0.64596 0.48215l0.00982 0.0346a0.68508 0.68508 0 0 1-0.48679 0.83044 0.68508 0.68508 0 0 1-0.83664-0.47594 0.68508 0.68508 0 0 1 0.46457-0.84284 0.68508 0.68508 0 0 1 0.20309-0.0284z" stroke="#000" stroke-width=".26458px"/>
 </g>
</svg>
